# XSI Wavefront OBJ Export v3.0
# File Created: Wed Aug 06 16:46:42 2014
# XSI Version: 11.0.525.0
o Cap_SW
# Hierarchy (from self to top father)
g Cap_SW

#begin 8 vertices
v -0.500868 0.125000 0.867527
v -0.461581 0.125000 0.796531
v -0.461581 -0.125000 0.796531
v -0.500868 -0.125000 0.867527
v -0.447849 0.125000 0.788603
v -0.447849 -0.125000 0.788603
v -0.396872 0.125000 0.867579
v -0.396872 -0.125000 0.867579
#end 8 vertices

#begin 16 normals
vn -0.874969 0.000000 -0.484179
vn -0.713503 0.000000 -0.700652
vn -0.713503 0.000000 -0.700652
vn -0.874969 0.000000 -0.484179
vn -0.713503 0.000000 -0.700652
vn -0.500000 0.000000 -0.866025
vn -0.500000 0.000000 -0.866025
vn -0.713503 0.000000 -0.700652
vn -0.000000 1.000000 0.000000
vn -0.000000 1.000000 0.000000
vn -0.000000 1.000000 0.000000
vn -0.000000 1.000000 0.000000
vn 0.840175 0.000000 -0.542315
vn 0.840175 0.000000 -0.542315
vn 0.840175 0.000000 -0.542315
vn 0.840175 0.000000 -0.542315
#end 16 vertex normals

#begin texture vertices
vt 0.993289 0.609437 0.000000
vt 0.652517 0.004340 0.000000
vt 0.004339 0.042488 0.000000
vt 0.847482 0.004340 0.000000
vt 0.822653 0.703749 0.000000
vt 0.847482 0.605038 0.000000
vt 0.605036 0.042488 0.000000
vt 0.652517 0.605038 0.000000
vt 0.004339 0.004389 0.000000
vt 0.803587 0.736734 0.000000
vt 0.605036 0.652696 0.000000
vt 0.605036 0.004389 0.000000
vt 0.004339 0.652696 0.000000
vt 0.605036 0.878558 0.000000
vt 0.993289 0.859318 0.000000
vt 0.004339 0.878558 0.000000
#end 16 texture vertices

#begin 4 faces
f 4/8/4 1/2/1 2/4/2 3/6/3 
f 3/7/8 2/3/5 5/9/6 6/12/7 
f 5/10/9 2/5/10 1/1/11 7/15/12 
f 6/13/16 5/11/13 7/14/14 8/16/15 
#end 4 faces
