# XSI Wavefront OBJ Export v3.0
# File Created: Mon Jul 14 16:55:11 2014
# XSI Version: 11.0.525.0
mtllib ship_debris_2.mtl

o polymsh_detached1
# Hierarchy (from self to top father)
g polymsh_detached1

#begin 41 vertices
v -0.112761 0.156328 -0.001264
v 0.734469 0.156328 0.021519
v 0.734469 0.156328 -0.001264
v 0.749298 0.126278 0.006800
v 0.854613 0.126278 0.021519
v 0.854613 0.126278 0.006800
v 0.749298 0.126278 0.021519
v -0.863249 0.156328 0.021519
v -0.863249 0.156328 -0.024051
v -0.112761 0.156328 0.044302
v 0.734469 0.156328 0.044302
v 0.785254 0.053443 0.067085
v 0.785254 0.053443 0.044302
v 0.749298 0.126278 0.036238
v -0.863249 0.156328 0.067085
v -0.863249 -0.019644 0.067085
v -0.112761 0.053443 0.067085
v 0.854613 0.126278 0.036238
v 0.838359 0.082341 0.041107
v -0.474375 -0.019644 0.067085
v 0.785254 -0.019644 0.067085
v 0.785254 -0.073242 0.062399
v 0.172155 -0.187966 0.052358
v -0.302447 -0.187966 0.052358
v 0.785254 -0.073242 0.021519
v 0.109700 -0.199648 0.021519
v 0.172155 -0.187966 -0.009324
v 0.785254 -0.073242 -0.019360
v -0.290509 -0.199648 0.021519
v -0.302447 -0.187966 -0.009324
v -0.112761 0.053443 -0.024051
v -0.474375 -0.019644 0.021519
v -0.474375 -0.019644 -0.024051
v -0.863249 -0.019644 0.021519
v -0.863249 -0.019644 -0.024051
v 0.785254 -0.019644 -0.024051
v 0.785254 0.053443 -0.024051
v 0.785254 0.053443 0.021519
v 0.785254 0.053443 -0.001264
v 0.838359 0.082341 0.001932
v 0.838359 0.082341 0.021519
#end 41 vertices

#begin 230 normals
vn 0.000000 1.000000 0.000000
vn 0.000000 1.000000 0.000000
vn 0.000000 1.000000 0.000000
vn 0.000000 1.000000 0.000000
vn 0.000000 1.000000 0.000000
vn 0.000000 1.000000 0.000000
vn 0.000000 1.000000 0.000000
vn 0.000000 1.000000 0.000000
vn 0.000000 1.000000 0.000000
vn 0.896746 0.442545 0.000000
vn 0.896733 0.442573 0.000127
vn 0.896719 0.442600 0.000127
vn 0.896733 0.442573 0.000127
vn 0.896746 0.442545 0.000000
vn 0.896746 0.442545 0.000000
vn 0.000000 1.000000 0.000000
vn 0.000000 1.000000 0.000000
vn 0.000000 1.000000 0.000000
vn 0.000000 1.000000 0.000000
vn 0.000000 1.000000 0.000000
vn 0.000000 1.000000 0.000000
vn 0.000000 1.000000 0.000000
vn -0.000000 1.000000 0.000000
vn 0.000000 1.000000 0.000000
vn 0.000000 0.086977 0.996210
vn 0.000000 0.216205 0.976348
vn 0.009877 0.216194 0.976300
vn 0.896719 0.442600 -0.000127
vn 0.988526 0.151051 0.000000
vn 0.973834 0.227260 -0.000098
vn 0.896719 0.442600 -0.000127
vn 0.973834 0.227260 -0.000098
vn 0.896733 0.442573 -0.000127
vn 0.014903 0.108711 0.993962
vn 0.000000 0.000000 1.000000
vn 0.007451 0.108732 0.994043
vn 0.009877 0.216194 0.976300
vn 0.014903 0.108711 0.993962
vn 0.007451 0.108732 0.994043
vn 0.000000 1.000000 0.000000
vn -0.000000 1.000000 0.000000
vn 0.000000 1.000000 0.000000
vn 0.000000 1.000000 0.000000
vn 0.000000 1.000000 0.000000
vn 0.000000 1.000000 0.000000
vn 0.937881 -0.346958 0.000000
vn 0.937881 -0.346958 0.000000
vn 0.756151 -0.654397 0.000000
vn 0.000000 0.086977 0.996210
vn 0.007451 0.108732 0.994043
vn 0.000000 0.000000 1.000000
vn -0.000028 0.110071 0.993924
vn 0.000000 0.110128 0.993917
vn -0.000028 0.110071 0.993924
vn -0.000028 0.110071 0.993924
vn -0.000057 0.110014 0.993930
vn -0.000028 0.110071 0.993924
vn 0.896746 0.442545 0.000000
vn 0.896719 0.442600 -0.000127
vn 0.896733 0.442573 -0.000127
vn 0.896733 0.442573 -0.000127
vn 0.896746 0.442545 0.000000
vn 0.896746 0.442545 0.000000
vn 0.000000 1.000000 0.000000
vn 0.000000 1.000000 0.000000
vn 0.000000 1.000000 0.000000
vn 0.000000 1.000000 0.000000
vn 0.000000 1.000000 0.000000
vn 0.000000 1.000000 0.000000
vn 0.009877 0.216194 0.976300
vn 0.007451 0.108732 0.994043
vn 0.000000 0.086977 0.996210
vn 0.000000 0.086977 0.996210
vn 0.000000 0.000000 1.000000
vn -0.000001 -0.052336 0.998630
vn 0.000000 0.086977 0.996210
vn -0.000001 -0.052336 0.998630
vn 0.000000 -0.043597 0.999049
vn -0.000001 -0.087140 0.996196
vn 0.000000 -0.043597 0.999049
vn -0.000001 -0.052336 0.998630
vn -0.000001 -0.087165 0.996194
vn -0.000001 -0.087140 0.996196
vn -0.000001 -0.052336 0.998630
vn -0.000001 -0.052336 0.998630
vn 0.000000 -0.087161 0.996194
vn -0.000001 -0.087165 0.996194
vn 0.973834 0.227260 -0.000098
vn 0.988526 0.151051 0.000000
vn 1.000000 0.000000 0.000000
vn 0.988526 0.151051 0.000000
vn 1.000000 0.000000 0.000000
vn 1.000000 0.000000 0.000000
vn 0.183926 -0.982940 -0.000000
vn 0.183929 -0.982939 0.000000
vn 0.093879 -0.979035 0.180767
vn 0.093879 -0.979035 0.180767
vn 0.095449 -0.995434 0.000010
vn 0.183926 -0.982940 -0.000000
vn 0.093879 -0.979039 -0.180746
vn 0.183926 -0.982940 -0.000000
vn 0.095449 -0.995434 0.000010
vn 0.183926 -0.982940 -0.000000
vn 0.093879 -0.979039 -0.180746
vn 0.183929 -0.982939 0.000000
vn 0.093879 -0.979035 0.180767
vn -0.505105 -0.853538 0.127834
vn -0.261236 -0.965275 0.000015
vn -0.261236 -0.965275 0.000015
vn 0.095449 -0.995434 0.000010
vn 0.093879 -0.979035 0.180767
vn -0.261236 -0.965275 0.000015
vn 0.093879 -0.979039 -0.180746
vn 0.095449 -0.995434 0.000010
vn 0.093879 -0.979039 -0.180746
vn -0.261236 -0.965275 0.000015
vn -0.505104 -0.853541 -0.127819
vn 0.009878 0.216230 -0.976292
vn 0.007453 0.108751 -0.994041
vn 0.014906 0.108730 -0.993960
vn -0.505104 -0.853541 -0.127819
vn -0.499110 -0.866538 -0.000000
vn -0.249558 -0.968360 0.000000
vn -0.499110 -0.866538 -0.000000
vn -0.505104 -0.853541 -0.127819
vn -0.261236 -0.965275 0.000015
vn -0.499110 -0.866538 -0.000000
vn -0.261236 -0.965275 0.000015
vn -0.505105 -0.853538 0.127834
vn -0.505105 -0.853538 0.127834
vn -0.249558 -0.968360 0.000000
vn -0.499110 -0.866538 -0.000000
vn -0.249558 -0.968360 0.000000
vn 0.000000 -1.000000 0.000000
vn 0.000000 -1.000000 0.000000
vn 0.000000 -1.000000 0.000000
vn -0.249558 -0.968360 0.000000
vn -0.499110 -0.866538 -0.000000
vn 0.000000 -1.000000 0.000000
vn -0.499110 -0.866538 -0.000000
vn -0.249558 -0.968360 0.000000
vn -0.249558 -0.968360 0.000000
vn -0.000000 -1.000000 0.000000
vn 0.000000 -1.000000 0.000000
vn 0.000000 -0.052348 -0.998629
vn 0.000001 -0.087158 -0.996194
vn 0.000000 -0.087161 -0.996194
vn 0.000001 -0.087158 -0.996194
vn 0.000000 -0.052348 -0.998629
vn 0.000001 -0.087170 -0.996194
vn 0.000001 -0.087170 -0.996194
vn 0.000000 -0.052348 -0.998629
vn 0.000000 -0.043633 -0.999048
vn 0.000000 0.086992 -0.996209
vn 0.000000 -0.043633 -0.999048
vn 0.000000 -0.052348 -0.998629
vn 0.000000 0.086992 -0.996209
vn 0.000000 -0.052348 -0.998629
vn 0.000000 0.000000 -1.000000
vn 0.000000 0.086992 -0.996209
vn 0.000000 0.000000 -1.000000
vn 0.007453 0.108751 -0.994041
vn 0.014906 0.108730 -0.993960
vn 0.007453 0.108751 -0.994041
vn 0.000000 0.000000 -1.000000
vn 0.009878 0.216230 -0.976292
vn 0.000000 0.086992 -0.996209
vn 0.007453 0.108751 -0.994041
vn 0.000000 0.086992 -0.996209
vn 0.009878 0.216230 -0.976292
vn 0.000000 0.216241 -0.976340
vn 1.000000 0.000000 0.000000
vn 0.973834 0.227260 -0.000098
vn 1.000000 0.000000 0.000000
vn 1.000000 0.000000 0.000000
vn 1.000000 0.000000 0.000000
vn 1.000000 0.000000 0.000000
vn 1.000000 0.000000 0.000000
vn 1.000000 0.000000 0.000000
vn 1.000000 0.000000 0.000000
vn 1.000000 0.000000 0.000000
vn 1.000000 0.000000 0.000000
vn 0.973834 0.227260 0.000098
vn 0.973834 0.227260 0.000098
vn 1.000000 0.000000 0.000000
vn 0.988526 0.151051 0.000000
vn 0.896719 0.442600 0.000127
vn 0.973834 0.227260 0.000098
vn 0.988526 0.151051 0.000000
vn 0.896719 0.442600 0.000127
vn 0.896733 0.442573 0.000127
vn 0.973834 0.227260 0.000098
vn -0.000028 0.110071 -0.993924
vn -0.000028 0.110071 -0.993924
vn -0.000057 0.110014 -0.993930
vn 0.756151 -0.654397 0.000000
vn 0.477979 -0.878371 0.000000
vn 0.477979 -0.878371 0.000000
vn 0.477979 -0.878371 0.000000
vn 0.756151 -0.654397 0.000000
vn 0.756151 -0.654397 0.000000
vn 0.477979 -0.878371 0.000000
vn 0.756151 -0.654397 0.000000
vn 0.756151 -0.654397 0.000000
vn 0.756151 -0.654397 0.000000
vn 0.756151 -0.654397 0.000000
vn 0.937881 -0.346958 0.000000
vn 0.756151 -0.654397 0.000000
vn 0.937881 -0.346958 0.000000
vn 0.756151 -0.654397 0.000000
vn 0.937881 -0.346958 0.000000
vn 0.756151 -0.654397 0.000000
vn 0.937881 -0.346958 0.000000
vn -0.000028 0.110071 -0.993924
vn -0.000028 0.110071 -0.993924
vn 0.000000 0.110128 -0.993917
vn 0.756151 -0.654397 0.000000
vn 0.477979 -0.878371 0.000000
vn 0.477979 -0.878371 0.000000
vn -1.000000 0.000000 0.000000
vn -1.000000 0.000000 0.000000
vn -1.000000 0.000000 0.000000
vn -1.000000 0.000000 0.000000
vn -1.000000 -0.000000 0.000000
vn -1.000000 -0.000000 0.000000
vn -1.000000 0.000000 0.000000
vn -1.000000 0.000000 0.000000
vn 0.988526 0.151051 0.000000
vn 1.000000 0.000000 0.000000
vn 1.000000 0.000000 0.000000
#end 230 vertex normals

#begin texture vertices
vt 0.152000 0.365326 0.000000
vt 0.319663 0.357591 0.000000
vt 0.323433 0.360111 0.000000
vt 0.320391 0.365425 0.000000
vt 0.356022 0.200608 0.000000
vt 0.327949 0.366906 0.000000
vt 0.399793 0.194584 0.000000
vt 0.405706 0.202219 0.000000
vt 0.399779 0.200700 0.000000
vt 0.356034 0.194492 0.000000
vt 0.330385 0.365657 0.000000
vt 0.001069 0.357601 0.000000
vt 0.001056 0.365138 0.000000
vt 0.152000 0.365326 0.000000
vt 0.320391 0.365425 0.000000
vt 0.330223 0.382343 0.000000
vt 0.374110 0.233507 0.000000
vt 0.335013 0.382157 0.000000
vt 0.327949 0.366906 0.000000
vt 0.356022 0.200608 0.000000
vt 0.001056 0.365138 0.000000
vt 0.565527 0.265580 0.000000
vt 0.001024 0.400530 0.000000
vt 0.150394 0.382684 0.000000
vt 0.399779 0.200700 0.000000
vt 0.392989 0.219060 0.000000
vt 0.617778 0.267458 0.000000
vt 0.078495 0.400411 0.000000
vt 0.330583 0.400301 0.000000
vt 0.330534 0.409236 0.000000
vt 0.208568 0.431972 0.000000
vt 0.114402 0.431758 0.000000
vt 0.334768 0.408607 0.000000
vt 0.330947 0.416000 0.000000
vt 0.195740 0.440979 0.000000
vt 0.208568 0.431972 0.000000
vt 0.330534 0.409236 0.000000
vt 0.109958 0.440471 0.000000
vt 0.113921 0.439832 0.000000
vt 0.114402 0.431758 0.000000
vt 0.150394 0.382684 0.000000
vt 0.617144 0.273917 0.000000
vt 0.072215 0.405091 0.000000
vt 0.078495 0.400411 0.000000
vt 0.617778 0.267458 0.000000
vt 0.566279 0.277062 0.000000
vt 0.001024 0.400530 0.000000
vt 0.565527 0.265580 0.000000
vt 0.330583 0.400301 0.000000
vt 0.330223 0.382343 0.000000
vt 0.339592 0.381754 0.000000
vt 0.379878 0.241571 0.000000
vt 0.335013 0.382157 0.000000
vt 0.374110 0.233507 0.000000
vt 0.392989 0.219060 0.000000
vt 0.400873 0.218146 0.000000
vt 0.397256 0.225991 0.000000
#end 57 texture vertices

#begin 76 faces
usemtl material
f 1/1/1 2/2/2 3/4/3 
usemtl material
f 4/5/4 5/7/5 6/9/6 
usemtl material
f 5/7/7 4/5/8 7/10/9 
usemtl material
f 2/3/10 4/6/11 3/4/12 
usemtl material
f 4/6/13 2/3/14 7/11/15 
usemtl material
f 1/1/16 8/12/17 2/2/18 
usemtl material
f 8/12/19 1/1/20 9/13/21 
usemtl material
f 10/14/22 11/15/23 2/2/24 
usemtl material
f 12/16/25 11/15/26 10/14/27 
usemtl material
f 11/15/28 12/16/29 13/18/30 
usemtl material
f 11/15/31 13/18/32 14/19/33 
usemtl material
f 15/21/34 16/23/35 17/24/36 
usemtl material
f 10/14/37 15/21/38 17/24/39 
usemtl material
f 14/20/40 18/25/41 5/7/42 
usemtl material
f 5/7/43 7/10/44 14/20/45 
usemtl material
f 5/8/46 18/25/47 19/26/48 
usemtl material
f 12/16/49 17/24/50 16/23/51 
usemtl material
f 19/26/52 18/25/53 14/20/54 
usemtl material
f 14/20/55 13/17/56 19/26/57 
usemtl material
f 2/3/58 11/15/59 14/19/60 
usemtl material
f 14/19/61 7/11/62 2/3/63 
usemtl material
f 10/14/64 2/2/65 8/12/66 
usemtl material
f 8/12/67 15/21/68 10/14/69 
usemtl material
f 10/14/70 17/24/71 12/16/72 
usemtl material
f 12/16/73 16/23/74 20/28/75 
usemtl material
f 12/16/76 20/28/77 21/29/78 
usemtl material
f 22/30/79 21/29/80 20/28/81 
usemtl material
f 23/31/82 22/30/83 20/28/84 
usemtl material
f 20/28/85 24/32/86 23/31/87 
usemtl material
f 13/18/88 12/16/89 22/30/90 
usemtl material
f 12/16/91 21/29/92 22/30/93 
usemtl material
f 25/34/94 22/30/95 23/31/96 
usemtl material
f 23/31/97 26/35/98 25/34/99 
usemtl material
f 27/36/100 25/34/101 26/35/102 
usemtl material
f 25/34/103 27/36/104 28/37/105 
usemtl material
f 23/31/106 24/32/107 29/39/108 
usemtl material
f 29/39/109 26/35/110 23/31/111 
usemtl material
f 29/39/112 27/36/113 26/35/114 
usemtl material
f 27/36/115 29/39/116 30/40/117 
usemtl material
f 1/1/118 31/41/119 9/13/120 
usemtl material
f 30/40/121 32/43/122 33/44/123 
usemtl material
f 32/43/124 30/40/125 29/38/126 
usemtl material
f 32/43/127 29/38/128 24/32/129 
usemtl material
f 24/32/130 20/28/131 32/43/132 
usemtl material
f 33/45/133 34/46/134 35/48/135 
usemtl material
f 34/46/136 33/45/137 32/42/138 
usemtl material
f 34/46/139 32/42/140 20/27/141 
usemtl material
f 20/27/142 16/22/143 34/46/144 
usemtl material
f 33/44/145 27/36/146 30/40/147 
usemtl material
f 27/36/148 33/44/149 28/37/150 
usemtl material
f 28/37/151 33/44/152 36/49/153 
usemtl material
f 37/50/154 36/49/155 33/44/156 
usemtl material
f 37/50/157 33/44/158 35/47/159 
usemtl material
f 37/50/160 35/47/161 31/41/162 
usemtl material
f 9/13/163 31/41/164 35/47/165 
usemtl material
f 1/1/166 37/50/167 31/41/168 
usemtl material
f 37/50/169 1/1/170 3/4/171 
usemtl material
f 38/51/172 13/18/173 22/30/174 
usemtl material
f 22/30/175 25/33/176 38/51/177 
usemtl material
f 28/37/178 38/51/179 25/33/180 
usemtl material
f 38/51/181 28/37/182 39/53/183 
usemtl material
f 39/53/184 28/37/185 37/50/186 
usemtl material
f 3/4/187 39/53/188 37/50/189 
usemtl material
f 3/4/190 4/6/191 39/53/192 
usemtl material
f 4/5/193 40/55/194 39/54/195 
usemtl material
f 40/55/196 38/52/197 39/54/198 
usemtl material
f 38/52/199 40/55/200 41/57/201 
usemtl material
f 38/52/202 41/57/203 19/26/204 
usemtl material
f 19/26/205 41/56/206 5/8/207 
usemtl material
f 40/55/208 5/8/209 41/56/210 
usemtl material
f 5/8/211 40/55/212 6/9/213 
usemtl material
f 40/55/214 4/5/215 6/9/216 
usemtl material
f 19/26/217 13/17/218 38/52/219 
usemtl material
f 9/13/220 35/47/221 34/46/222 8/12/223 
usemtl material
f 16/23/224 15/21/225 8/12/226 34/46/227 
usemtl material
f 37/50/228 28/37/229 36/49/230 
#end 76 faces
