# Blender v2.75 (sub 0) OBJ File: 'wreckage.blend'
# www.blender.org
v 0.298063 0.204152 0.291226
v -0.079918 -0.036494 0.414081
v 0.104878 -0.287574 0.863199
v 0.534163 -0.024740 0.774368
v -0.397877 0.070574 -1.060477
v 0.053272 0.335917 -0.972331
v 0.157217 0.317181 -0.271422
v -0.310544 0.100222 -0.451306
v -0.352661 0.093093 -0.720329
v 0.214307 -0.471001 0.944348
v 0.612052 -0.134964 0.827644
v 0.018508 -0.154048 0.718849
v 0.435893 0.089199 0.628745
v 0.232293 0.241131 -0.039095
v -0.166973 0.008312 0.064787
v -0.227744 0.046327 -0.156488
v 0.102990 0.339663 -0.580918
v 0.298071 0.204137 0.291222
v -0.079921 -0.036488 0.414085
v 0.104878 -0.287568 0.863214
v 0.534162 -0.024738 0.774370
v -0.397872 0.070566 -1.060477
v 0.053268 0.335924 -0.972331
v 0.157220 0.317176 -0.271423
v -0.310543 0.100221 -0.451306
v -0.352659 0.093088 -0.720329
v 0.214307 -0.470996 0.944361
v 0.612052 -0.134961 0.827652
v 0.018505 -0.154040 0.718859
v 0.435894 0.089196 0.628743
v 0.232298 0.241122 -0.039098
v -0.166975 0.008316 0.064788
v -0.227744 0.046328 -0.156487
v 0.102990 0.339664 -0.580918
vt 0.869439 0.494128
vt 0.813147 0.513436
vt 0.812512 0.474986
vt 0.810997 0.383337
vt 0.864020 0.385891
vt 0.811425 0.409238
vt 0.862730 0.285174
vt 0.862530 0.306317
vt 0.807447 0.308315
vt 0.862135 0.348250
vt 0.810342 0.343726
vt 0.862891 0.268116
vt 0.805427 0.283616
vt 0.865452 0.414497
vt 0.867229 0.449988
vt 0.812006 0.444382
vt 0.803916 0.258042
vt 0.130561 0.494128
vt 0.187488 0.474986
vt 0.186853 0.513436
vt 0.189003 0.383337
vt 0.188575 0.409238
vt 0.135981 0.385891
vt 0.137270 0.285174
vt 0.192553 0.308315
vt 0.137470 0.306317
vt 0.189658 0.343726
vt 0.137865 0.348250
vt 0.137109 0.268116
vt 0.194573 0.283616
vt 0.134548 0.414497
vt 0.187994 0.444382
vt 0.132771 0.449988
vt 0.196085 0.258042
vn -0.495300 0.867900 0.038400
vn -0.508500 0.861000 0.010600
vn -0.496000 0.867500 0.036700
vn -0.449800 0.860800 0.238000
vn -0.450500 0.846100 0.284700
vn -0.462600 0.834300 0.299900
vn -0.153100 0.544800 0.824400
vn -0.316400 0.756600 0.572100
vn -0.311400 0.738300 0.598300
vn -0.427700 0.848400 0.312100
vn -0.423400 0.838400 0.343300
vn -0.054900 0.396100 0.916600
vn -0.141900 0.512000 0.847100
vn -0.462100 0.837200 0.292300
vn -0.476500 0.874100 0.094800
vn -0.487000 0.860000 0.152600
vn -0.049300 0.379300 0.923900
vn 0.495300 -0.867800 -0.038400
vn 0.496000 -0.867500 -0.036700
vn 0.508500 -0.861000 -0.010600
vn 0.449800 -0.860900 -0.238000
vn 0.462600 -0.834300 -0.299900
vn 0.450500 -0.846200 -0.284700
vn 0.153100 -0.544800 -0.824400
vn 0.311400 -0.738300 -0.598300
vn 0.316400 -0.756600 -0.572100
vn 0.423400 -0.838400 -0.343200
vn 0.427600 -0.848400 -0.312000
vn 0.054900 -0.396100 -0.916500
vn 0.141900 -0.512100 -0.847100
vn 0.462100 -0.837200 -0.292300
vn 0.487000 -0.860000 -0.152600
vn 0.476500 -0.874100 -0.094800
vn 0.049300 -0.379300 -0.923900
s 1
f 6/1/1 5/2/2 9/3/3
f 15/4/4 14/5/5 16/6/6
f 4/7/7 13/8/8 12/9/9
f 13/8/8 1/10/10 2/11/11
f 11/12/12 4/7/7 3/13/13
f 14/5/5 7/14/14 16/6/6
f 1/10/10 14/5/5 15/4/4
f 7/14/14 17/15/15 8/16/16
f 17/15/15 6/1/1 9/3/3
f 3/13/13 4/7/7 12/9/9
f 12/9/9 13/8/8 2/11/11
f 10/17/17 11/12/12 3/13/13
f 2/11/11 1/10/10 15/4/4
f 16/6/6 7/14/14 8/16/16
f 8/16/16 17/15/15 9/3/3
f 23/18/18 26/19/19 22/20/20
f 32/21/21 33/22/22 31/23/23
f 21/24/24 29/25/25 30/26/26
f 30/26/26 19/27/27 18/28/28
f 28/29/29 20/30/30 21/24/24
f 31/23/23 33/22/22 24/31/31
f 18/28/28 32/21/21 31/23/23
f 24/31/31 25/32/32 34/33/33
f 34/33/33 26/19/19 23/18/18
f 20/30/30 29/25/25 21/24/24
f 29/25/25 19/27/27 30/26/26
f 27/34/34 20/30/30 28/29/29
f 19/27/27 32/21/21 18/28/28
f 33/22/22 25/32/32 24/31/31
f 25/32/32 26/19/19 34/33/33
