# Blender v2.75 (sub 0) OBJ File: 'wreckage.blend'
# www.blender.org
v 0.226194 0.248607 -1.036642
v -0.200205 -0.602938 0.984120
v 0.219111 0.427320 -0.622457
v -0.124209 -0.303511 -0.034725
v 0.170114 0.264355 -0.159999
v -0.148235 -0.398175 0.287383
v 0.146992 0.150778 0.819110
v -0.038272 0.035081 -1.186833
v -0.066289 -0.075306 -0.811226
v -0.029829 -0.248349 -0.339430
v 0.212047 0.360667 0.169803
v 0.150596 0.261475 0.505045
v -0.172219 -0.492670 0.608915
v 0.226194 0.248607 -1.036642
v -0.200205 -0.602938 0.984120
v 0.219111 0.427320 -0.622457
v -0.124209 -0.303511 -0.034725
v 0.170091 0.264367 -0.159997
v -0.148235 -0.398175 0.287383
v 0.146976 0.150788 0.819110
v -0.038272 0.035081 -1.186833
v -0.066289 -0.075306 -0.811226
v -0.029828 -0.248349 -0.339431
v 0.211998 0.360688 0.169800
v 0.150563 0.261489 0.505043
v -0.172219 -0.492670 0.608915
vt 0.546378 0.134482
vt 0.589944 0.134176
vt 0.569721 0.158845
vt 0.588684 0.098891
vt 0.547779 0.076361
vt 0.603176 0.078728
vt 0.602769 0.053298
vt 0.602387 0.029410
vt 0.548361 0.052251
vt 0.548941 0.028184
vt 0.549618 0.000100
vt 0.545700 0.162596
vt 0.547236 0.098892
vt 0.453622 0.134482
vt 0.430279 0.158845
vt 0.410056 0.134176
vt 0.411317 0.098891
vt 0.452221 0.076361
vt 0.396824 0.078728
vt 0.397231 0.053298
vt 0.397613 0.029410
vt 0.451639 0.052251
vt 0.451059 0.028184
vt 0.450382 0.000100
vt 0.454300 0.162596
vt 0.452764 0.098892
vn -0.847600 0.528700 0.044100
vn -0.860700 0.506900 -0.048300
vn -0.769700 0.631900 -0.090600
vn -0.903000 0.429300 0.015400
vn -0.903700 0.424100 -0.058500
vn -0.888900 0.457500 -0.024500
vn -0.909700 0.411300 0.056000
vn -0.912000 0.399000 0.094500
vn -0.911400 0.406700 0.062200
vn -0.901800 0.428200 0.058600
vn -0.673800 0.720900 0.161600
vn -0.931000 0.364900 -0.005300
vn 0.847600 -0.528700 -0.044100
vn 0.769700 -0.631900 0.090600
vn 0.860700 -0.506900 0.048300
vn 0.903000 -0.429300 -0.015400
vn 0.903700 -0.424100 0.058500
vn 0.888900 -0.457500 0.024500
vn 0.909800 -0.411300 -0.056100
vn 0.912100 -0.398900 -0.094500
vn 0.911400 -0.406600 -0.062200
vn 0.901800 -0.428200 -0.058600
vn 0.673800 -0.720900 -0.161600
vn 0.931000 -0.364900 0.005400
s 1
f 9/1/1 3/2/2 1/3/3
f 5/4/4 3/2/2 9/1/1
f 4/5/5 11/6/6 5/4/4
f 12/7/7 11/6/6 4/5/5
f 7/8/8 12/7/7 6/9/9
f 13/10/10 2/11/10 7/8/8
f 8/12/11 9/1/1 1/3/3
f 10/13/12 5/4/4 9/1/1
f 10/13/12 4/5/5 5/4/4
f 6/9/9 12/7/7 4/5/5
f 13/10/10 7/8/8 6/9/9
f 22/14/13 14/15/14 16/16/15
f 18/17/16 22/14/13 16/16/15
f 17/18/17 18/17/16 24/19/18
f 25/20/19 17/18/17 24/19/18
f 20/21/20 19/22/21 25/20/19
f 26/23/22 20/21/20 15/24/22
f 21/25/23 14/15/14 22/14/13
f 23/26/24 22/14/13 18/17/16
f 23/26/24 18/17/16 17/18/17
f 19/22/21 17/18/17 25/20/19
f 26/23/22 19/22/21 20/21/20
