# Blender v2.75 (sub 0) OBJ File: 'wreckage.blend'
# www.blender.org
v 0.272519 0.029398 1.343079
v -0.871051 0.496854 0.830259
v 0.156814 0.312069 -1.450318
v -0.339196 0.029399 -0.349796
v 0.537235 0.029384 0.085247
v 0.628743 0.627337 -1.451658
v 0.272519 0.029369 1.343079
v -0.871051 0.496853 0.830259
v 0.156814 0.312011 -1.450318
v -0.339196 0.029368 -0.349796
v 0.537235 0.029383 0.085247
v 0.628743 0.627284 -1.451658
vt 0.774387 0.530818
vt 0.813147 0.513436
vt 0.792414 0.570815
vt 0.822120 0.556069
vt 0.825221 0.608162
vt 0.809226 0.608117
vt 0.225613 0.530818
vt 0.207586 0.570815
vt 0.186853 0.513436
vt 0.177880 0.556069
vt 0.190775 0.608117
vt 0.174779 0.608162
vn 0.433000 0.887700 -0.156500
vn 0.270900 0.957600 -0.097900
vn 0.063800 0.995800 0.064500
vn -0.092200 0.991400 0.092900
vn -0.532900 0.798800 0.279100
vn -0.410000 0.873500 0.262400
vn -0.433000 -0.887700 0.156500
vn -0.063800 -0.995800 -0.064500
vn -0.270900 -0.957600 0.097900
vn 0.092200 -0.991400 -0.092900
vn 0.410000 -0.873500 -0.262300
vn 0.532900 -0.798900 -0.279000
s 1
f 2/1/1 1/2/2 4/3/3
f 5/4/4 6/5/5 3/6/6
f 1/2/2 5/4/4 4/3/3
f 4/3/3 5/4/4 3/6/6
f 8/7/7 10/8/8 7/9/9
f 11/10/10 9/11/11 12/12/12
f 7/9/9 10/8/8 11/10/10
f 10/8/8 9/11/11 11/10/10
