# Blender v2.75 (sub 0) OBJ File: 'wreckage.blend'
# www.blender.org
v -0.441248 -0.361488 1.213914
v -0.156706 -0.070063 0.646528
v -0.179145 -0.073077 -0.910034
v -0.322253 0.119149 0.208953
v 0.744439 -0.048076 -0.418724
v 0.619405 0.149338 -0.738019
v -0.568269 0.203338 -0.272721
v 0.278697 -0.081528 0.209517
v 0.028138 0.126672 -0.404932
v 0.165009 0.019149 -0.086335
v 0.364173 -0.036465 -1.073608
v -0.682562 -0.047243 0.486217
v -0.609688 -0.150326 0.723781
v 0.092498 -0.021163 1.144873
v -0.224538 -0.006005 0.441979
v -0.455549 0.221271 -0.090103
v 0.862697 -0.232222 -0.081284
v 0.381015 -0.150546 0.416467
v -0.441247 -0.361496 1.213910
v -0.156712 -0.070091 0.646522
v -0.179141 -0.073098 -0.910027
v -0.322259 0.119127 0.208948
v 0.744432 -0.048101 -0.418730
v 0.619398 0.149309 -0.738026
v -0.568271 0.203322 -0.272719
v 0.278688 -0.081554 0.209512
v 0.028133 0.126653 -0.404936
v 0.165003 0.019125 -0.086341
v 0.364178 -0.036495 -1.073597
v -0.682559 -0.047270 0.486205
v -0.609686 -0.150356 0.723767
v 0.092497 -0.021174 1.144875
v -0.224546 -0.006036 0.441972
v -0.455551 0.221260 -0.090105
v 0.862689 -0.232243 -0.081288
v 0.381009 -0.150569 0.416462
vt 0.710967 0.699084
vt 0.760535 0.694150
vt 0.759925 0.745141
vt 0.759544 0.776944
vt 0.700972 0.771570
vt 0.809860 0.781561
vt 0.759195 0.806068
vt 0.812643 0.733956
vt 0.701398 0.737772
vt 0.809251 0.805946
vt 0.849317 0.800918
vt 0.848381 0.824468
vt 0.810642 0.825594
vt 0.758943 0.827136
vt 0.810611 0.751523
vt 0.700535 0.806211
vt 0.809704 0.874883
vt 0.844890 0.873373
vt 0.289033 0.699084
vt 0.240075 0.745141
vt 0.239465 0.694150
vt 0.299028 0.771570
vt 0.240456 0.776944
vt 0.240805 0.806068
vt 0.190140 0.781561
vt 0.187357 0.733956
vt 0.298602 0.737772
vt 0.190750 0.805946
vt 0.151619 0.824468
vt 0.150683 0.800918
vt 0.241057 0.827136
vt 0.189358 0.825594
vt 0.189389 0.751523
vt 0.299465 0.806211
vt 0.190296 0.874883
vt 0.155110 0.873373
vn -0.155800 0.938700 -0.307300
vn -0.084700 0.938000 -0.336200
vn 0.144200 0.989400 -0.016800
vn 0.295400 0.931300 0.213100
vn 0.267000 0.887700 0.375100
vn 0.214100 0.924100 0.316600
vn 0.290900 0.933300 0.210500
vn 0.070200 0.967100 -0.244300
vn 0.219900 0.865900 0.449300
vn 0.106100 0.929900 0.352000
vn -0.039500 0.901400 0.431200
vn -0.074700 0.912400 0.402500
vn 0.047200 0.980900 0.188800
vn 0.187400 0.978400 0.087200
vn 0.206600 0.978100 0.023100
vn 0.319500 0.893200 0.316200
vn 0.087500 0.986200 -0.140500
vn -0.088500 0.903300 0.419600
vn 0.155800 -0.938700 0.307300
vn -0.144200 -0.989400 0.016800
vn 0.084700 -0.938000 0.336200
vn -0.267000 -0.887700 -0.375100
vn -0.295400 -0.931300 -0.213100
vn -0.290900 -0.933300 -0.210500
vn -0.214100 -0.924000 -0.316600
vn -0.070200 -0.967100 0.244300
vn -0.219900 -0.865900 -0.449200
vn -0.106100 -0.929900 -0.352000
vn 0.074700 -0.912400 -0.402400
vn 0.039500 -0.901300 -0.431300
vn -0.187400 -0.978400 -0.087200
vn -0.047200 -0.980900 -0.188800
vn -0.206600 -0.978100 -0.023100
vn -0.319500 -0.893200 -0.316200
vn -0.087500 -0.986200 0.140500
vn 0.088500 -0.903400 -0.419600
s 1
f 11/1/1 3/2/2 9/3/3
f 9/3/3 10/4/4 5/5/5
f 10/4/4 4/6/6 8/7/7
f 3/2/2 7/8/8 9/3/3
f 6/9/9 9/3/3 5/5/5
f 15/10/10 12/11/11 13/12/12
f 15/10/10 4/6/6 12/11/11
f 15/10/10 2/13/13 18/14/14
f 4/6/6 15/10/10 8/7/7
f 16/15/15 4/6/6 10/4/4
f 7/8/8 16/15/15 9/3/3
f 10/4/4 8/7/7 17/16/16
f 18/14/14 2/13/13 14/17/17
f 2/13/13 15/10/10 13/12/12
f 8/7/7 15/10/10 18/14/14
f 13/12/12 1/18/18 2/13/13
f 9/3/3 16/15/15 10/4/4
f 5/5/5 10/4/4 17/16/16
f 29/19/19 27/20/20 21/21/21
f 27/20/20 23/22/22 28/23/23
f 28/23/23 26/24/24 22/25/25
f 21/21/21 27/20/20 25/26/26
f 24/27/27 23/22/22 27/20/20
f 33/28/28 31/29/29 30/30/30
f 33/28/28 30/30/30 22/25/25
f 33/28/28 36/31/31 20/32/32
f 22/25/25 26/24/24 33/28/28
f 34/33/33 28/23/23 22/25/25
f 25/26/26 27/20/20 34/33/33
f 28/23/23 35/34/34 26/24/24
f 36/31/31 32/35/35 20/32/32
f 20/32/32 31/29/29 33/28/28
f 26/24/24 36/31/31 33/28/28
f 31/29/29 20/32/32 19/36/36
f 27/20/20 28/23/23 34/33/33
f 23/22/22 35/34/34 28/23/23
