# Blender v2.75 (sub 0) OBJ File: 'wreckage.blend'
# www.blender.org
v 0.448013 -0.146099 1.333361
v 0.632349 -0.093371 -0.466474
v 0.725570 -0.210250 0.783344
v 1.211876 -0.313078 -0.172279
v -0.989568 0.507711 0.335929
v -0.192532 0.207670 0.877804
v -0.560320 0.167009 -1.152596
v 0.448019 -0.146082 1.333362
v 0.632349 -0.093371 -0.466474
v 0.725578 -0.210232 0.783342
v 1.211884 -0.313055 -0.172277
v -0.989552 0.507748 0.335925
v -0.192520 0.207696 0.877802
v -0.560311 0.167031 -1.152598
vt 0.863719 0.189940
vt 0.859228 0.215840
vt 0.823375 0.188583
vt 0.862891 0.268116
vt 0.803916 0.258042
vt 0.801669 0.220035
vt 0.799763 0.187788
vt 0.136282 0.189940
vt 0.176625 0.188583
vt 0.139222 0.215840
vt 0.196085 0.258042
vt 0.137109 0.268116
vt 0.198331 0.220035
vt 0.200237 0.187788
vn 0.325200 0.943400 0.064000
vn 0.338800 0.940800 -0.007500
vn 0.402500 0.912500 0.072800
vn 0.284900 0.949000 -0.135000
vn 0.321600 0.945100 -0.057800
vn 0.384700 0.922100 0.040200
vn 0.421000 0.900600 0.107400
vn -0.325200 -0.943500 -0.063900
vn -0.402500 -0.912500 -0.072800
vn -0.338800 -0.940800 0.007600
vn -0.321700 -0.945100 0.057800
vn -0.284900 -0.949000 0.135000
vn -0.384800 -0.922100 -0.040200
vn -0.421000 -0.900600 -0.107400
s 1
f 4/1/1 2/2/2 3/3/3
f 2/2/2 7/4/4 5/5/5
f 6/6/6 1/7/7 3/3/3
f 2/2/2 6/6/6 3/3/3
f 2/2/2 5/5/5 6/6/6
f 11/8/8 10/9/9 9/10/10
f 9/10/10 12/11/11 14/12/12
f 13/13/13 10/9/9 8/14/14
f 9/10/10 10/9/9 13/13/13
f 9/10/10 13/13/13 12/11/11
