# Blender v2.75 (sub 0) OBJ File: 'wreckage.blend'
# www.blender.org
v -0.381082 0.027324 -0.882511
v -0.037407 0.029384 -0.880880
v -0.050164 0.029385 -0.576042
v 0.301000 0.250586 -0.880880
v 0.446269 0.039869 0.935139
v 0.445535 0.084684 -0.269350
v -0.382731 0.065938 -0.188329
v 0.371768 0.147885 -0.581458
v -0.381815 0.044493 -0.573851
v -0.383863 0.147753 0.288342
v -0.084898 0.060692 0.289718
v 0.445423 0.029389 0.290725
v -0.384861 0.171119 0.708401
v -0.102773 0.086339 0.718508
v -0.100107 0.097799 0.930591
v 0.445334 0.029394 0.737352
v -0.066599 0.029387 -0.183284
v -0.381082 0.027324 -0.882511
v -0.037407 0.029383 -0.880880
v -0.050164 0.029382 -0.576042
v 0.301000 0.250586 -0.880880
v 0.446266 0.039846 0.935141
v 0.445535 0.084684 -0.269350
v -0.382731 0.065932 -0.188329
v 0.371768 0.147885 -0.581458
v -0.381815 0.044490 -0.573851
v -0.383864 0.147743 0.288343
v -0.084900 0.060681 0.289719
v 0.445423 0.029378 0.290725
v -0.384862 0.171106 0.708402
v -0.102775 0.086324 0.718509
v -0.100109 0.097781 0.930592
v 0.445334 0.029373 0.737352
v -0.066599 0.029380 -0.183284
vt 0.670192 0.925674
vt 0.670070 0.874705
vt 0.702168 0.874746
vt 0.706043 0.967355
vt 0.751089 0.967933
vt 0.743534 0.999900
vt 0.670369 0.999900
vt 0.670290 0.966896
vt 0.707405 0.999900
vt 0.700249 0.828887
vt 0.700535 0.806211
vt 0.758943 0.827136
vt 0.759195 0.806068
vt 0.704288 0.925424
vt 0.758952 0.874818
vt 0.758964 0.934612
vt 0.669963 0.829790
vt 0.329809 0.925674
vt 0.297832 0.874746
vt 0.329930 0.874705
vt 0.293957 0.967355
vt 0.256466 0.999900
vt 0.248911 0.967933
vt 0.329631 0.999900
vt 0.329710 0.966896
vt 0.292595 0.999900
vt 0.299752 0.828887
vt 0.241057 0.827136
vt 0.299465 0.806211
vt 0.240805 0.806068
vt 0.295712 0.925424
vt 0.241048 0.874818
vt 0.241036 0.934612
vt 0.330037 0.829790
vn 0.145800 0.986300 -0.076900
vn 0.280400 0.954200 -0.104200
vn 0.160900 0.984600 -0.067300
vn -0.162900 0.986200 0.027500
vn -0.197500 0.951200 0.236900
vn -0.374000 0.900300 0.222500
vn 0.020900 0.999300 -0.029300
vn 0.060600 0.997400 -0.038900
vn -0.294700 0.955500 -0.012300
vn 0.167000 0.984500 -0.053400
vn 0.105200 0.993000 -0.054500
vn 0.092600 0.994900 -0.039000
vn 0.105700 0.993000 -0.053100
vn 0.003400 1.000000 0.001100
vn 0.019600 0.999700 0.010700
vn -0.079600 0.984100 0.158600
vn 0.289100 0.955800 -0.052500
vn -0.145800 -0.986300 0.076900
vn -0.160900 -0.984600 0.067300
vn -0.280400 -0.954200 0.104200
vn 0.162900 -0.986200 -0.027600
vn 0.374000 -0.900300 -0.222500
vn 0.197500 -0.951200 -0.236900
vn -0.020900 -0.999300 0.029300
vn -0.060600 -0.997400 0.038900
vn 0.294700 -0.955500 0.012300
vn -0.167000 -0.984500 0.053400
vn -0.092600 -0.994900 0.039000
vn -0.105200 -0.993000 0.054500
vn -0.105700 -0.993000 0.053100
vn -0.003400 -1.000000 -0.001100
vn -0.019600 -0.999700 -0.010700
vn 0.079600 -0.984100 -0.158700
vn -0.289100 -0.955800 0.052500
s 1
f 7/1/1 10/2/2 11/3/3
f 3/4/4 8/5/5 4/6/6
f 1/7/7 9/8/8 3/4/4
f 2/9/9 3/4/4 4/6/6
f 2/9/9 1/7/7 3/4/4
f 14/10/10 15/11/11 16/12/12
f 15/11/11 5/13/13 16/12/12
f 17/14/14 11/3/3 12/15/15
f 9/8/8 7/1/1 17/14/14
f 17/14/14 6/16/16 8/5/5
f 10/2/2 13/17/17 14/10/10
f 11/3/3 14/10/10 16/12/12
f 17/14/14 7/1/1 11/3/3
f 6/16/16 17/14/14 12/15/15
f 3/4/4 9/8/8 17/14/14
f 3/4/4 17/14/14 8/5/5
f 11/3/3 10/2/2 14/10/10
f 12/15/15 11/3/3 16/12/12
f 24/18/18 28/19/19 27/20/20
f 20/21/21 21/22/22 25/23/23
f 18/24/24 20/21/21 26/25/25
f 19/26/26 21/22/22 20/21/21
f 19/26/26 20/21/21 18/24/24
f 31/27/27 33/28/28 32/29/29
f 32/29/29 33/28/28 22/30/30
f 34/31/31 29/32/32 28/19/19
f 26/25/25 34/31/31 24/18/18
f 34/31/31 25/23/23 23/33/33
f 27/20/20 31/27/27 30/34/34
f 28/19/19 33/28/28 31/27/27
f 34/31/31 28/19/19 24/18/18
f 23/33/33 29/32/32 34/31/31
f 20/21/21 34/31/31 26/25/25
f 20/21/21 25/23/23 34/31/31
f 28/19/19 31/27/27 27/20/20
f 29/32/32 33/28/28 28/19/19
