# Blender v2.75 (sub 0) OBJ File: 'wreckage.blend'
# www.blender.org
v 0.923920 0.108506 -0.847551
v -0.439488 -0.195694 0.323683
v -0.041158 0.432279 1.213672
v -0.063793 -0.337229 -0.621534
v -0.663294 -0.423147 -0.058537
v 0.450081 -1.006547 -1.375658
v 0.163205 0.027113 -0.253619
v 0.638683 0.713492 0.685674
v 0.923921 0.108504 -0.847550
v -0.439487 -0.195696 0.323683
v -0.041157 0.432277 1.213673
v -0.063792 -0.337231 -0.621533
v -0.663293 -0.423149 -0.058537
v 0.450082 -1.006549 -1.375657
v 0.163206 0.027112 -0.253619
v 0.638684 0.713490 0.685674
vt 0.952514 0.559977
vt 0.913276 0.547213
vt 0.936963 0.524928
vt 0.959688 0.496993
vt 0.999900 0.496132
vt 0.999900 0.527500
vt 0.956301 0.526723
vt 0.942449 0.496445
vt 0.047486 0.559977
vt 0.063037 0.524928
vt 0.086724 0.547213
vt 0.040313 0.496993
vt 0.000100 0.527500
vt 0.000100 0.496132
vt 0.043699 0.526723
vt 0.057551 0.496445
vn -0.429800 0.619000 -0.657300
vn -0.408300 0.526600 -0.745600
vn -0.466700 0.688900 -0.554600
vn -0.534200 0.807400 -0.250500
vn -0.554100 0.776500 -0.299900
vn -0.556600 0.777100 -0.293700
vn -0.508300 0.776500 -0.372500
vn -0.509600 0.811500 -0.286000
vn 0.429800 -0.619000 0.657300
vn 0.466700 -0.688900 0.554600
vn 0.408300 -0.526600 0.745600
vn 0.534200 -0.807400 0.250500
vn 0.556600 -0.777100 0.293700
vn 0.554100 -0.776500 0.299900
vn 0.508300 -0.776500 0.372500
vn 0.509600 -0.811500 0.286000
s 1
f 1/1/1 6/2/2 4/3/3
f 2/4/4 3/5/5 8/6/6
f 7/7/7 4/3/3 5/8/8
f 7/7/7 2/4/4 8/6/6
f 7/7/7 1/1/1 4/3/3
f 2/4/4 7/7/7 5/8/8
f 9/9/9 12/10/10 14/11/11
f 10/12/12 16/13/13 11/14/14
f 15/15/15 13/16/16 12/10/10
f 15/15/15 16/13/13 10/12/12
f 15/15/15 12/10/10 9/9/9
f 10/12/12 13/16/16 15/15/15
