# Blender v2.75 (sub 0) OBJ File: 'wreckage.blend'
# www.blender.org
v 0.660138 -0.820270 0.929532
v -0.479118 0.172500 -0.361812
v -0.416424 0.833112 -0.789240
v -1.755745 -0.779271 -0.835140
v -0.394175 -0.815678 0.081438
v 0.762144 0.447181 0.559985
v -1.603953 -0.071264 -1.188046
v 1.043456 1.149830 0.104756
v 0.660120 -0.820262 0.929555
v -0.479130 0.172507 -0.361802
v -0.416422 0.833111 -0.789242
v -1.755782 -0.779242 -0.835099
v -0.394208 -0.815667 0.081467
v 0.762134 0.447188 0.559995
v -1.603960 -0.071258 -1.188038
v 1.043453 1.149833 0.104760
vt 0.810997 0.383337
vt 0.811425 0.409238
vt 0.760507 0.404275
vt 0.764227 0.381076
vt 0.769370 0.349001
vt 0.722188 0.379044
vt 0.722256 0.355067
vt 0.810342 0.343726
vt 0.189003 0.383337
vt 0.239493 0.404275
vt 0.188575 0.409238
vt 0.230630 0.349001
vt 0.235773 0.381076
vt 0.277812 0.379044
vt 0.277744 0.355067
vt 0.189658 0.343726
vn -0.574800 0.434700 0.693200
vn -0.507800 0.602300 0.615900
vn -0.573200 0.502300 0.647400
vn -0.584400 0.401400 0.705200
vn -0.575700 0.288900 0.764900
vn -0.587600 0.463400 0.663300
vn -0.566200 0.401500 0.719800
vn -0.603200 0.267600 0.751300
vn 0.574800 -0.434800 -0.693200
vn 0.573200 -0.502400 -0.647300
vn 0.507800 -0.602300 -0.615900
vn 0.575700 -0.289000 -0.764900
vn 0.584400 -0.401500 -0.705100
vn 0.587600 -0.463400 -0.663300
vn 0.566200 -0.401600 -0.719800
vn 0.603200 -0.267600 -0.751300
s 1
f 6/1/1 8/2/2 3/3/3
f 6/1/1 2/4/4 5/5/5
f 2/4/4 3/3/3 7/6/6
f 2/4/4 7/6/6 4/7/7
f 2/4/4 6/1/1 3/3/3
f 1/8/8 6/1/1 5/5/5
f 5/5/5 2/4/4 4/7/7
f 14/9/9 11/10/10 16/11/11
f 14/9/9 13/12/12 10/13/13
f 10/13/13 15/14/14 11/10/10
f 10/13/13 12/15/15 15/14/14
f 10/13/13 11/10/10 14/9/9
f 9/16/16 13/12/12 14/9/9
f 13/12/12 12/15/15 10/13/13
