# Blender v2.75 (sub 0) OBJ File: 'wreckage.blend'
# www.blender.org
v -0.328738 0.205758 -0.893592
v -0.328738 0.411529 1.179644
v 0.432953 0.029393 -0.033822
v 0.403945 0.235164 0.640792
v 0.452096 0.029387 -0.851475
v -0.328738 0.029383 -0.028410
v -0.328738 0.205758 -0.893592
v -0.328738 0.411529 1.179644
v 0.432953 0.029374 -0.033822
v 0.403945 0.235145 0.640792
v 0.452096 0.029379 -0.851475
v -0.328738 0.029383 -0.028410
vt 0.534773 0.810874
vt 0.500000 0.812750
vt 0.500000 0.774220
vt 0.500000 0.720420
vt 0.532629 0.744418
vt 0.533921 0.774461
vt 0.465227 0.810874
vt 0.467371 0.744418
vt 0.466079 0.774461
vn 0.113700 0.987600 0.107900
vn 0.206000 0.958800 0.195400
vn 0.053700 0.993300 -0.102500
vn 0.007700 0.953400 -0.301600
vn 0.004000 0.954600 -0.297900
vn -0.001000 0.989600 -0.143800
vn -0.113700 -0.987600 -0.107900
vn -0.053700 -0.993300 0.102500
vn -0.206000 -0.958800 -0.195400
vn -0.004000 -0.954600 0.297900
vn -0.007700 -0.953400 0.301600
vn 0.001000 -0.989600 0.143800
s 1
f 5/1/1 1/2/2 6/3/3
f 6/3/3 2/4/4 4/5/5
f 3/6/6 5/1/1 6/3/3
f 3/6/6 6/3/3 4/5/5
f 11/7/7 12/3/8 7/2/9
f 12/3/8 10/8/10 8/4/11
f 9/9/12 12/3/8 11/7/7
f 9/9/12 10/8/10 12/3/8
