# Blender v2.75 (sub 0) OBJ File: 'wreckage.blend'
# www.blender.org
v 0.878709 -0.035477 0.438929
v 1.012050 -0.622262 -0.197111
v -0.514275 0.089093 -0.280924
v 0.501168 -0.425972 -0.195452
v 0.689428 -0.465383 -0.219191
v -1.027982 0.785129 0.219532
v -0.886237 0.343092 -0.357079
v 0.244606 0.072695 0.311893
v -0.434136 0.395620 0.146413
v 0.158866 -0.276283 -0.207588
v 0.878706 -0.035489 0.438938
v 1.012055 -0.622252 -0.197119
v -0.514287 0.089080 -0.280912
v 0.501169 -0.425969 -0.195455
v 0.689429 -0.465377 -0.219195
v -1.027986 0.785106 0.219549
v -0.886246 0.343076 -0.357065
v 0.244606 0.072694 0.311893
v -0.434148 0.395602 0.146428
v 0.158865 -0.276283 -0.207587
vt 0.813147 0.513436
vt 0.869439 0.494128
vt 0.867699 0.518499
vt 0.866730 0.532071
vt 0.822120 0.556069
vt 0.864925 0.557352
vt 0.825221 0.608162
vt 0.861291 0.608265
vt 0.859184 0.637785
vt 0.811879 0.652711
vt 0.186853 0.513436
vt 0.132301 0.518499
vt 0.130561 0.494128
vt 0.133270 0.532071
vt 0.177880 0.556069
vt 0.174779 0.608162
vt 0.135075 0.557352
vt 0.138709 0.608265
vt 0.140816 0.637785
vt 0.188121 0.652711
vn 0.265300 0.755100 -0.599500
vn 0.388100 0.716500 -0.579600
vn 0.244900 0.777900 -0.578600
vn 0.219600 0.784600 -0.579800
vn 0.366300 0.730400 -0.576400
vn 0.399600 0.725100 -0.560700
vn 0.467800 0.703800 -0.534500
vn 0.489300 0.662600 -0.567000
vn 0.490400 0.703900 -0.513700
vn 0.440900 0.761400 -0.475300
vn -0.265300 -0.755100 0.599500
vn -0.244900 -0.777900 0.578600
vn -0.388000 -0.716500 0.579600
vn -0.219600 -0.784600 0.579800
vn -0.366300 -0.730400 0.576400
vn -0.467800 -0.703800 0.534500
vn -0.399600 -0.725200 0.560700
vn -0.489300 -0.662600 0.567000
vn -0.490400 -0.703900 0.513700
vn -0.440900 -0.761400 0.475300
s 1
f 1/1/1 2/2/2 5/3/3
f 1/1/1 5/3/3 4/4/4
f 8/5/5 10/6/6 9/7/7
f 10/6/6 3/8/8 9/7/7
f 7/9/9 6/10/10 9/7/7
f 8/5/5 4/4/4 10/6/6
f 9/7/7 3/8/8 7/9/9
f 8/5/5 1/1/1 4/4/4
f 11/11/11 15/12/12 12/13/13
f 11/11/11 14/14/14 15/12/12
f 18/15/15 19/16/16 20/17/17
f 20/17/17 19/16/16 13/18/18
f 17/19/19 19/16/16 16/20/20
f 18/15/15 20/17/17 14/14/14
f 19/16/16 17/19/19 13/18/18
f 18/15/15 14/14/14 11/11/11
