# Blender v2.75 (sub 0) OBJ File: 'wreckage.blend'
# www.blender.org
v 0.116464 0.268372 -0.339913
v 0.593974 -0.768990 -0.306809
v 0.014918 -0.418204 0.139285
v 0.694265 -0.112599 -0.757016
v -0.049513 1.063464 0.586576
v 0.287423 -0.632393 -0.139919
v -0.133297 -0.115529 0.553556
v -0.033874 0.609215 0.055450
v 0.693974 -0.459582 -0.507780
v 0.115310 -0.055379 -0.103917
v 0.384823 -0.297393 -0.353968
v -0.039876 0.607486 0.616242
v -0.214054 0.157604 0.931782
v 0.382628 0.043028 -0.592670
v -0.034050 0.298172 0.278281
v 0.116461 0.268371 -0.339914
v 0.593973 -0.768990 -0.306809
v 0.014911 -0.418205 0.139284
v 0.694265 -0.112599 -0.757016
v -0.049522 1.063464 0.586576
v 0.287420 -0.632394 -0.139920
v -0.133308 -0.115530 0.553554
v -0.033880 0.609215 0.055450
v 0.693974 -0.459582 -0.507781
v 0.115305 -0.055380 -0.103918
v 0.384821 -0.297394 -0.353969
v -0.039886 0.607486 0.616241
v -0.214069 0.157604 0.931780
v 0.382627 0.043027 -0.592671
v -0.034058 0.298171 0.278280
vt 0.670070 0.874705
vt 0.670192 0.925674
vt 0.629068 0.925975
vt 0.670290 0.966896
vt 0.633859 0.966429
vt 0.670369 0.999900
vt 0.637823 0.999900
vt 0.597295 0.999900
vt 0.617862 0.831344
vt 0.669963 0.829790
vt 0.622989 0.874646
vt 0.594420 0.965922
vt 0.591063 0.926254
vt 0.586692 0.874599
vt 0.581089 0.808376
vt 0.329930 0.874705
vt 0.370932 0.925975
vt 0.329809 0.925674
vt 0.366141 0.966429
vt 0.329710 0.966896
vt 0.362177 0.999900
vt 0.329631 0.999900
vt 0.402705 0.999900
vt 0.382139 0.831344
vt 0.377011 0.874646
vt 0.330037 0.829790
vt 0.405580 0.965922
vt 0.408937 0.926254
vt 0.413308 0.874599
vt 0.418911 0.808376
vn 0.952300 -0.033900 0.303200
vn 0.868400 0.080500 0.489200
vn 0.878900 0.185400 0.439400
vn 0.676500 0.244800 0.694600
vn 0.676400 0.343700 0.651400
vn 0.558600 0.317200 0.766400
vn 0.569700 0.400200 0.717800
vn 0.581500 0.471800 0.662700
vn 0.992800 -0.075900 0.092200
vn 0.962200 -0.135800 0.235800
vn 0.977400 0.006500 0.211300
vn 0.697700 0.415300 0.583700
vn 0.893600 0.262300 0.364300
vn 0.990000 0.084100 0.113500
vn 0.999700 0.021800 0.010700
vn -0.952300 0.033900 -0.303200
vn -0.878900 -0.185400 -0.439400
vn -0.868400 -0.080500 -0.489200
vn -0.676400 -0.343700 -0.651400
vn -0.676500 -0.244800 -0.694600
vn -0.569700 -0.400200 -0.717800
vn -0.558600 -0.317200 -0.766400
vn -0.581500 -0.471800 -0.662700
vn -0.992800 0.075900 -0.092200
vn -0.977400 -0.006500 -0.211300
vn -0.962200 0.135800 -0.235800
vn -0.697700 -0.415300 -0.583700
vn -0.893600 -0.262300 -0.364300
vn -0.990000 -0.084100 -0.113500
vn -0.999700 -0.021800 -0.010800
s 1
f 7/1/1 3/2/2 10/3/3
f 3/2/2 6/4/4 11/5/5
f 6/4/4 2/6/6 9/7/7
f 11/5/5 9/7/7 4/8/8
f 10/3/3 3/2/2 11/5/5
f 11/5/5 6/4/4 9/7/7
f 12/9/9 13/10/10 15/11/11
f 13/10/10 7/1/1 15/11/11
f 10/3/3 11/5/5 14/12/12
f 15/11/11 10/3/3 1/13/13
f 12/9/9 15/11/11 8/14/14
f 15/11/11 7/1/1 10/3/3
f 14/12/12 11/5/5 4/8/8
f 1/13/13 10/3/3 14/12/12
f 8/14/14 15/11/11 1/13/13
f 5/15/15 12/9/9 8/14/14
f 22/16/16 25/17/17 18/18/18
f 18/18/18 26/19/19 21/20/20
f 21/20/20 24/21/21 17/22/22
f 26/19/19 19/23/23 24/21/21
f 25/17/17 26/19/19 18/18/18
f 26/19/19 24/21/21 21/20/20
f 27/24/24 30/25/25 28/26/26
f 28/26/26 30/25/25 22/16/16
f 25/17/17 29/27/27 26/19/19
f 30/25/25 16/28/28 25/17/17
f 27/24/24 23/29/29 30/25/25
f 30/25/25 25/17/17 22/16/16
f 29/27/27 19/23/23 26/19/19
f 16/28/28 29/27/27 25/17/17
f 23/29/29 16/28/28 30/25/25
f 20/30/30 23/29/29 27/24/24
