# Blender v2.75 (sub 0) OBJ File: 'wreckage.blend'
# www.blender.org
v 0.817857 0.609749 1.789257
v -0.865011 0.609752 -1.332777
v 0.817857 0.029385 -1.260546
v -0.901535 0.029389 0.595343
v 0.817857 0.609746 1.789257
v -0.865011 0.609743 -1.332777
v 0.817857 0.029382 -1.260546
v -0.901535 0.029378 0.595343
vt 0.958358 0.868502
vt 0.957456 0.820906
vt 0.999900 0.866719
vt 0.999900 0.791434
vt 0.041642 0.868502
vt 0.000100 0.866719
vt 0.042544 0.820906
vt 0.000100 0.791434
vn 0.302200 0.911200 0.280000
vn -0.023800 0.999500 -0.022100
vn 0.078600 0.994200 0.072800
vn -0.197800 0.963000 -0.183200
vn -0.302200 -0.911200 -0.280000
vn -0.078600 -0.994200 -0.072800
vn 0.023800 -0.999500 0.022100
vn 0.197800 -0.963000 0.183200
s 1
f 2/1/1 4/2/2 3/3/3
f 4/2/2 1/4/4 3/3/3
f 6/5/5 7/6/6 8/7/7
f 8/7/7 7/6/6 5/8/8
