# Blender v2.75 (sub 0) OBJ File: 'wreckage.blend'
# www.blender.org
v -0.733680 -0.396274 -0.851179
v -0.551594 0.177689 -0.493214
v 0.363277 -0.369519 -0.332335
v 0.403175 -0.183393 0.041476
v -0.217043 0.497596 0.640244
v 0.429145 -0.000004 0.297564
v 0.572539 0.208749 0.630913
v -0.196668 -0.536292 -0.860370
v 0.041658 0.011587 -0.059229
v -0.292028 0.191557 -0.152180
v 0.308673 -0.668052 -0.869018
v -0.236861 0.378423 0.241456
v 0.632515 0.625034 1.005301
v 0.096904 0.166931 0.279469
v 0.231334 0.644788 1.058262
v 0.165411 0.357685 0.635724
v -0.013685 -0.144048 -0.398624
v -0.733680 -0.396274 -0.851179
v -0.551577 0.177714 -0.493228
v 0.363285 -0.369507 -0.332342
v 0.403218 -0.183333 0.041441
v -0.217036 0.497614 0.640229
v 0.429179 0.000061 0.297529
v 0.572548 0.208774 0.630895
v -0.196668 -0.536292 -0.860370
v 0.041696 0.011641 -0.059260
v -0.291994 0.191606 -0.152208
v 0.308673 -0.668053 -0.869018
v -0.236838 0.378456 0.241437
v 0.632515 0.625033 1.005301
v 0.096937 0.166978 0.279442
v 0.231334 0.644788 1.058262
v 0.165419 0.357707 0.635708
v -0.013673 -0.144031 -0.398633
v -0.196668 -0.536292 -0.860370
vt 0.625556 0.075553
vt 0.649803 0.072113
vt 0.651063 0.096371
vt 0.647282 0.054155
vt 0.589944 0.134176
vt 0.588684 0.098891
vt 0.622081 0.133689
vt 0.625964 0.029951
vt 0.625751 0.053740
vt 0.602769 0.053298
vt 0.649692 0.000100
vt 0.651063 0.030527
vt 0.626231 0.000100
vt 0.625360 0.097409
vt 0.652323 0.133231
vt 0.348937 0.030527
vt 0.350308 0.000100
vt 0.373769 0.000100
vt 0.603176 0.078728
vt 0.602387 0.029410
vt 0.374444 0.075553
vt 0.348938 0.096371
vt 0.350198 0.072113
vt 0.352718 0.054155
vt 0.410056 0.134176
vt 0.377919 0.133689
vt 0.411317 0.098891
vt 0.374036 0.029951
vt 0.397231 0.053298
vt 0.374249 0.053740
vt 0.374640 0.097409
vt 0.347677 0.133231
vt 0.396824 0.078728
vt 0.397613 0.029410
vn 0.506700 0.742700 -0.437800
vn 0.516100 0.708100 -0.481900
vn 0.516600 0.734000 -0.440800
vn 0.408400 0.751200 -0.518400
vn 0.115400 0.499000 -0.858900
vn 0.399400 0.640400 -0.656000
vn 0.234600 0.628500 -0.741600
vn 0.329600 0.788200 -0.519700
vn 0.466300 0.756600 -0.458300
vn 0.470800 0.782600 -0.407200
vn -0.064200 0.672400 -0.737400
vn 0.202800 0.754200 -0.624500
vn 0.140600 0.746900 -0.649800
vn 0.471700 0.707100 -0.526700
vn 0.314100 0.733900 -0.602300
vn -0.202900 -0.754300 0.624400
vn 0.064200 -0.672400 0.737300
vn -0.140600 -0.747000 0.649800
vn 0.518500 0.742000 -0.424800
vn 0.310700 0.862200 -0.400100
vn -0.506700 -0.742700 0.437800
vn -0.516600 -0.734000 0.440900
vn -0.516100 -0.708000 0.481900
vn -0.408400 -0.751300 0.518400
vn -0.115400 -0.499000 0.858900
vn -0.283200 -0.546200 0.788300
vn -0.399400 -0.640300 0.656100
vn -0.329600 -0.788200 0.519600
vn -0.470800 -0.782600 0.407200
vn -0.466300 -0.756700 0.458300
vn -0.471700 -0.707100 0.526700
vn -0.314100 -0.733800 0.602300
vn -0.518500 -0.742000 0.424900
vn -0.310700 -0.862200 0.400000
vn -0.174800 -0.715100 0.676800
s 1
f 9/1/1 4/2/2 3/3/3
f 6/4/4 4/2/2 9/1/1
f 1/5/5 2/6/6 8/7/7
f 16/8/8 14/9/9 12/10/10
f 13/11/11 7/12/12 15/13/13
f 17/14/14 3/3/3 11/15/15
f 16/8/8 7/12/12 6/4/4
f 24/16/16 30/17/17 32/18/18
f 2/6/6 17/14/14 8/7/7
f 10/19/19 9/1/1 17/14/14
f 15/13/13 16/8/8 5/20/20
f 12/10/10 14/9/9 9/1/1
f 8/7/7 17/14/14 11/15/15
f 17/14/14 9/1/1 3/3/3
f 14/9/9 6/4/4 9/1/1
f 14/9/9 16/8/8 6/4/4
f 2/6/6 10/19/19 17/14/14
f 5/20/20 16/8/8 12/10/10
f 10/19/19 12/10/10 9/1/1
f 26/21/21 20/22/22 21/23/23
f 23/24/24 26/21/21 21/23/23
f 18/25/25 25/26/26 19/27/27
f 33/28/28 29/29/29 31/30/30
f 33/28/28 24/16/16 32/18/18
f 34/31/31 28/32/32 20/22/22
f 33/28/28 23/24/24 24/16/16
f 19/27/27 25/26/26 34/31/31
f 27/33/33 34/31/31 26/21/21
f 32/18/18 22/34/34 33/28/28
f 29/29/29 26/21/21 31/30/30
f 35/26/35 28/32/32 34/31/31
f 34/31/31 20/22/22 26/21/21
f 31/30/30 26/21/21 23/24/24
f 31/30/30 23/24/24 33/28/28
f 7/12/12 16/8/8 15/13/13
f 19/27/27 34/31/31 27/33/33
f 22/34/34 29/29/29 33/28/28
f 27/33/33 26/21/21 29/29/29
