# Blender v2.75 (sub 0) OBJ File: 'wreckage.blend'
# www.blender.org
v -0.099471 -0.076702 -0.648457
v 0.374513 -0.283787 -0.545319
v -0.253411 0.341197 0.283452
v 0.358256 -0.280014 -0.125850
v 0.004319 0.133845 0.312206
v 0.187438 -0.221518 0.932422
v -0.277113 0.437508 0.785823
v -0.346242 0.103694 -0.727946
v -0.123054 -0.138071 -1.023122
v -0.038875 0.038830 -0.172249
v -0.291164 0.235943 -0.199351
v 0.341253 -0.220021 0.371683
v -0.082218 0.161024 0.847327
v -0.099472 -0.076702 -0.648457
v 0.374512 -0.283788 -0.545319
v -0.253411 0.341197 0.283452
v 0.358256 -0.280015 -0.125850
v 0.004319 0.133845 0.312206
v 0.187437 -0.221519 0.932422
v -0.277114 0.437508 0.785823
v -0.346242 0.103693 -0.727946
v -0.123054 -0.138072 -1.023122
v -0.038875 0.038830 -0.172249
v -0.291165 0.235942 -0.199351
v 0.341253 -0.220021 0.371683
v -0.082219 0.161024 0.847327
vt 0.687542 0.054682
vt 0.687062 0.031783
vt 0.722457 0.055138
vt 0.788296 0.035314
vt 0.813627 0.036198
vt 0.791888 0.056045
vt 0.782195 0.000100
vt 0.217806 0.000100
vt 0.211704 0.035314
vt 0.186374 0.036198
vt 0.722578 0.000100
vt 0.722506 0.033019
vt 0.755424 0.034167
vt 0.755468 0.055569
vt 0.755353 0.000100
vt 0.312938 0.031783
vt 0.312458 0.054682
vt 0.277543 0.055138
vt 0.686397 0.000100
vt 0.277494 0.033019
vt 0.208112 0.056045
vt 0.277422 0.000100
vt 0.244576 0.034167
vt 0.244532 0.055569
vt 0.244647 0.000100
vt 0.313603 0.000100
vn 0.822600 0.564400 -0.069400
vn 0.757600 0.648900 0.069400
vn 0.667800 0.738200 -0.094700
vn 0.527800 0.821600 -0.215200
vn 0.521100 0.836400 -0.169800
vn 0.620500 0.754200 -0.214700
vn 0.514000 0.847400 -0.132900
vn -0.514000 -0.847400 0.132900
vn -0.527800 -0.821600 0.215200
vn -0.521100 -0.836400 0.169800
vn 0.740400 0.670900 0.041000
vn 0.667800 0.742700 -0.049400
vn 0.596700 0.776100 -0.204000
vn 0.615800 0.752000 -0.235000
vn 0.655400 0.753000 -0.058400
vn -0.757600 -0.648900 -0.069400
vn -0.822600 -0.564400 0.069400
vn -0.667800 -0.738200 0.094700
vn 0.775300 0.594100 0.214200
vn -0.667800 -0.742700 0.049400
vn -0.620500 -0.754200 0.214700
vn -0.740400 -0.670900 -0.041000
vn -0.596700 -0.776100 0.204000
vn -0.615800 -0.752000 0.235000
vn -0.655400 -0.753000 0.058400
vn -0.775300 -0.594100 -0.214200
s 1
f 7/1/1 13/2/2 3/3/3
f 1/4/4 9/5/5 8/6/6
f 1/4/4 2/7/7 9/5/5
f 15/8/8 14/9/9 22/10/10
f 12/11/11 5/12/12 13/2/2
f 10/13/13 11/14/14 3/3/3
f 4/15/15 10/13/13 5/12/12
f 2/7/7 1/4/4 10/13/13
f 1/4/4 8/6/6 11/14/14
f 26/16/16 20/17/17 16/18/18
f 6/19/19 12/11/11 13/2/2
f 5/12/12 10/13/13 3/3/3
f 12/11/11 4/15/15 5/12/12
f 4/15/15 2/7/7 10/13/13
f 10/13/13 1/4/4 11/14/14
f 18/20/20 26/16/16 16/18/18
f 14/9/9 21/21/21 22/10/10
f 13/2/2 5/12/12 3/3/3
f 25/22/22 26/16/16 18/20/20
f 23/23/23 16/18/18 24/24/24
f 17/25/25 18/20/20 23/23/23
f 15/8/8 23/23/23 14/9/9
f 14/9/9 24/24/24 21/21/21
f 19/26/26 26/16/16 25/22/22
f 18/20/20 16/18/18 23/23/23
f 25/22/22 18/20/20 17/25/25
f 17/25/25 23/23/23 15/8/8
f 23/23/23 24/24/24 14/9/9
